<svg width="1508" height="1125" viewBox="0 0 1508 1125" fill="none" xmlns="http://www.w3.org/2000/svg">
<path d="M33.3 641H109.35V890.75H235.8V956H33.3V641ZM334.167 895.25L339.567 837.2H495.717L500.667 895.25H334.167ZM416.517 756.65L372.417 858.35L376.017 875L336.867 956H250.917L416.517 621.2L582.567 956H496.167L458.367 878.15L461.067 858.8L416.517 756.65ZM672.275 799.4V766.1H723.125C731.825 766.1 739.175 764.75 745.175 762.05C751.475 759.35 756.275 755.6 759.575 750.8C762.875 745.7 764.525 739.55 764.525 732.35C764.525 721.55 760.925 713.45 753.725 708.05C746.525 702.65 736.325 699.95 723.125 699.95H691.625V897.05H730.325C740.225 897.05 749.075 895.85 756.875 893.45C764.675 890.75 770.825 886.55 775.325 880.85C780.125 874.85 782.525 866.75 782.525 856.55C782.525 849.95 781.175 844.25 778.475 839.45C775.775 834.65 772.025 830.75 767.225 827.75C762.425 824.75 756.875 822.65 750.575 821.45C744.575 819.95 737.825 819.2 730.325 819.2H672.275V777.8H738.875C754.175 777.8 769.025 779.45 783.425 782.75C797.825 786.05 810.875 791.45 822.575 798.95C834.275 806.15 843.575 815.45 850.475 826.85C857.675 837.95 861.275 851.45 861.275 867.35C861.275 888.35 856.175 905.3 845.975 918.2C836.075 931.1 821.975 940.7 803.675 947C785.375 953 763.775 956 738.875 956H615.575V641H731.225C753.125 641 772.325 644 788.825 650C805.625 655.7 818.825 664.55 828.425 676.55C838.325 688.25 843.275 703.1 843.275 721.1C843.275 737.6 838.325 751.7 828.425 763.4C818.825 775.1 805.625 784.1 788.825 790.4C772.325 796.4 753.125 799.4 731.225 799.4H672.275ZM949.054 845.3C955.354 856.7 962.404 866.6 970.204 875C978.304 883.4 987.004 889.85 996.304 894.35C1005.9 898.85 1015.95 901.1 1026.45 901.1C1037.55 901.1 1046.7 898.4 1053.9 893C1061.1 887.3 1064.7 879.65 1064.7 870.05C1064.7 861.95 1062.6 855.5 1058.4 850.7C1054.2 845.6 1047.45 840.8 1038.15 836.3C1028.85 831.8 1016.55 826.7 1001.25 821C993.754 818.3 985.054 814.55 975.154 809.75C965.554 804.95 956.404 798.8 947.704 791.3C939.004 783.5 931.804 774.2 926.104 763.4C920.404 752.3 917.554 738.95 917.554 723.35C917.554 704.75 922.354 688.7 931.954 675.2C941.854 661.7 955.054 651.5 971.554 644.6C988.354 637.4 1006.95 633.8 1027.35 633.8C1048.35 633.8 1066.5 637.25 1081.8 644.15C1097.4 651.05 1110.3 659.75 1120.5 670.25C1130.7 680.75 1138.5 691.4 1143.9 702.2L1085.85 734.6C1081.35 727.1 1076.1 720.65 1070.1 715.25C1064.4 709.55 1057.95 705.2 1050.75 702.2C1043.85 698.9 1036.35 697.25 1028.25 697.25C1017.45 697.25 1009.2 699.65 1003.5 704.45C997.804 708.95 994.954 714.65 994.954 721.55C994.954 728.75 997.654 735.05 1003.05 740.45C1008.75 745.85 1016.7 750.8 1026.9 755.3C1037.4 759.8 1050 764.6 1064.7 769.7C1075.8 773.9 1086.15 778.85 1095.75 784.55C1105.35 789.95 1113.75 796.55 1120.95 804.35C1128.45 812.15 1134.3 821.15 1138.5 831.35C1142.7 841.55 1144.8 853.25 1144.8 866.45C1144.8 882.35 1141.5 896.6 1134.9 909.2C1128.6 921.5 1119.9 931.85 1108.8 940.25C1098 948.65 1085.55 954.95 1071.45 959.15C1057.65 963.65 1043.4 965.9 1028.7 965.9C1008.3 965.9 989.254 962.3 971.554 955.1C954.154 947.6 939.004 937.55 926.104 924.95C913.204 912.35 903.154 898.55 895.954 883.55L949.054 845.3Z" fill="#D0D0D0"/>
<path d="M127 356.5L106 535H17L73.5 167.5L222.5 381L372 167.5L428.5 535H339.5L318.5 356.5L222.5 502.5L127 356.5ZM538.313 535V465.5H714.813V535H538.313ZM538.313 254.5V185H714.813V254.5H538.313ZM538.313 385V317H704.813V385H538.313ZM482.313 185H563.313V535H482.313V185ZM807.082 388.5V312.5H1072.08V388.5H807.082ZM1018.58 185H1103.08V535H1018.58V185ZM783.582 185H868.082V535H783.582V185ZM1231.65 467.5L1237.65 403H1411.15L1416.65 467.5H1231.65ZM1323.15 313.5L1274.15 426.5L1278.15 445L1234.65 535H1139.15L1323.15 163L1507.65 535H1411.65L1369.65 448.5L1372.65 427L1323.15 313.5Z" fill="url(#paint0_linear_3356_647)"/>
<defs>
<linearGradient id="paint0_linear_3356_647" x1="753.934" y1="780.238" x2="750.506" y2="0.0150842" gradientUnits="userSpaceOnUse">
<stop stop-color="#F61D68"/>
<stop offset="1" stop-color="#FEC44C"/>
</linearGradient>
</defs>
</svg>
